<?xml version="1.0" encoding="iso-8859-1"?>
<!-- Generator: Adobe Illustrator 16.0.0, SVG Export Plug-In . SVG Version: 6.00 Build 0)  -->
<!DOCTYPE svg PUBLIC "-//W3C//DTD SVG 1.1//EN" "http://www.w3.org/Graphics/SVG/1.1/DTD/svg11.dtd">
<svg version="1.1" id="Capa_1" xmlns="http://www.w3.org/2000/svg" xmlns:xlink="http://www.w3.org/1999/xlink" x="0px" y="0px"
	 width="541.875px" height="541.875px" viewBox="0 0 541.875 541.875" style="enable-background:new 0 0 541.875 541.875;"
	 xml:space="preserve">
<g>
	<path d="M433.5,274.125h-29.644c-5.164,0-9.882-3.188-11.794-8.033l-12.176-26.838c-6.185-13.707-19.827-22.504-34.808-22.504
		h-7.204v-6.375c3.519,0,6.375-2.856,6.375-6.375v-12.75h19.125c17.602,0,31.875-14.273,31.875-31.875v-127.5
		C395.25,14.273,380.977,0,363.375,0h-102C243.773,0,229.5,14.273,229.5,31.875v127.5c0,17.602,14.273,31.875,31.875,31.875H280.5
		V204c0,3.519,2.856,6.375,6.375,6.375v6.375h-7.204c-14.981,0-28.624,8.797-34.807,22.504l-12.176,26.838
		c-1.913,4.845-6.63,8.033-11.794,8.033h-57.579c-2.417,0-4.622-1.364-5.699-3.525l-1.09-2.18
		c-2.161-4.316-6.579-7.044-11.405-7.044h-9.741c-4.826,0-9.244,2.729-11.405,7.044l-1.09,2.187
		c-1.083,2.155-3.289,3.519-5.706,3.519h-8.804c-24.646,0-44.625,19.979-44.625,44.625v178.5c0,24.646,19.979,44.625,44.625,44.625
		H433.5c24.646,0,44.625-19.979,44.625-44.625v-178.5C478.125,294.104,458.146,274.125,433.5,274.125z M261.375,95.625
		c-10.563,0-19.125-8.562-19.125-19.125V31.875c0-10.563,8.562-19.125,19.125-19.125h102c10.563,0,19.125,8.562,19.125,19.125V76.5
		c0,10.563-8.562,19.125-19.125,19.125H261.375z M306,210.375h12.75v6.375H306V210.375z M194.438,350.625
		c-8.797,0-15.938-7.14-15.938-15.938s7.14-15.938,15.938-15.938s15.938,7.14,15.938,15.938S203.235,350.625,194.438,350.625z
		 M309.188,503.625c-54.57,0-98.812-44.242-98.812-98.812S254.618,306,309.188,306c54.57,0,98.812,44.242,98.812,98.812
		S363.758,503.625,309.188,503.625z M388.875,404.812c0,44.013-35.675,79.688-79.688,79.688c-44.013,0-79.688-35.675-79.688-79.688
		s35.674-79.688,79.688-79.688C353.2,325.125,388.875,360.8,388.875,404.812z"/>
</g>
<g>
</g>
<g>
</g>
<g>
</g>
<g>
</g>
<g>
</g>
<g>
</g>
<g>
</g>
<g>
</g>
<g>
</g>
<g>
</g>
<g>
</g>
<g>
</g>
<g>
</g>
<g>
</g>
<g>
</g>
</svg>
